<?xml version="1.0" encoding="UTF-8"?>
<svg width="36px" height="36px" viewBox="0 0 36 36" version="1.1" xmlns="http://www.w3.org/2000/svg" xmlns:xlink="http://www.w3.org/1999/xlink">
    <!-- Generator: Sketch 63.1 (92452) - https://sketch.com -->
    <g id="logo">
        <path d="M29.0231 36C32.8763 36 35.9999 32.8764 35.9999 29.0233C35.9999 25.1701 32.8763 22.0465 29.0231 22.0465C25.17 22.0465 22.0464 25.1701 22.0464 29.0233C22.0464 32.8764 25.17 36 29.0231 36Z" fill="#17B086"/>
        <path d="M18.7826 18C28.2915 18 36 10.2915 36 0.782612V0.782612C36 0.350389 35.6496 3.31825e-06 35.2174 3.26157e-06L17.2174 9.01156e-07C7.7085 -3.45787e-07 1.45257e-05 7.70849 1.32787e-05 17.2174V17.2174C1.3222e-05 17.6496 0.350399 18 0.782622 18L18.7826 18Z" fill="#FDDB60"/>
        <path d="M18 18.7826C18 28.2915 10.2915 36 0.782606 36V36C0.350383 36 -2.2169e-06 35.6496 -2.17911e-06 35.2174L-6.055e-07 17.2174C2.25795e-07 7.70848 7.70849 -8.11187e-06 17.2174 -7.28058e-06V-7.28058e-06C17.6496 -7.24279e-06 18 0.350379 18 0.782602L18 18.7826Z" fill="#5B25B3"/>
        <path fill-rule="evenodd" clipRule="evenodd" d="M18 18L18 0C8.05888 -8.6908e-07 9.11554e-06 8.05887 0 18L18 18Z" fill="#17B086"/>
    </g>
</svg>