<?xml version="1.0" encoding="UTF-8"?>
<svg width="350px" height="48px" viewBox="0 0 350 48" version="1.1" xmlns="http://www.w3.org/2000/svg" xmlns:xlink="http://www.w3.org/1999/xlink">
    <!-- Generator: Sketch 63.1 (92452) - https://sketch.com -->
    <title>Fill</title>
    <desc>Created with Sketch.</desc>
    <g id="Rebranding" stroke="none" stroke-width="1" fill="none" fill-rule="evenodd">
        <g id="Login---Vide" transform="translate(-545.000000, -270.000000)">
            <g id="Fill" transform="translate(545.000000, 270.000000)">
                <path d="M24.8090821,23.7754831 C37.3691787,23.7754831 47.5509662,13.5936111 47.5509662,1.03358213 C47.5509662,0.462671256 47.0881884,-0.000145152778 46.5173671,-0.000145152778 L22.741715,-0.000145152778 C10.1816184,-0.000145152778 -0.000299787681,10.1817536 -0.000299787681,22.741715 C-0.000299787681,23.3127053 0.46251401,23.7754831 1.03342488,23.7754831 L24.8090821,23.7754831 Z" id="Path" fill="#FDDB60" fill-rule="nonzero"></path>
                <path d="M23.7754831,24.8090821 C23.7754831,37.3691787 13.5936111,47.5509662 1.03358382,47.5509662 C0.462672947,47.5509662 -0.00014180901,47.0881884 -0.00014180901,46.5173671 L-0.00014180901,22.741715 C-0.00014180901,10.1816184 10.1817705,-0.000300014251 22.7418841,-0.000300014251 C23.3127053,-0.000300014251 23.7754831,0.46251401 23.7754831,1.03342657 L23.7754831,24.8090821 Z" id="Path" fill="#5B25B3" fill-rule="nonzero"></path>
                <path d="M23.7756522,-9.3108559e-14 L23.7756522,23.7756522 L0,23.7756522 C0,10.6512271 10.6341836,0.010541442 23.7562077,-9.3108559e-14 C23.7626329,-9.3108559e-14 23.7692271,-9.3108559e-14 23.7756522,-9.3108559e-14 Z" id="Path" fill="#17B086"></path>
                <path d="M103.16901,41.6425604 C97.6065459,41.6425604 92.3981401,38.9132367 89.2322464,34.3393961 L87.3931401,31.6822705 L79.7800483,31.6822705 L79.7800483,41.6425604 L71.5114251,41.6425604 L71.5114251,5.90365459 L86.9702657,5.90365459 C89.8012077,5.83630918 92.6135507,6.37716908 95.2175845,7.48971256 C97.4144686,8.4253285 99.2892512,9.98389372 100.61029,11.972942 C101.903261,14.0352536 102.558116,16.4337005 102.492343,18.867029 C102.591763,21.277971 101.938768,23.6601691 100.623986,25.6834058 C99.3092029,27.7068116 97.3977295,29.2711594 95.1541787,30.159686 L103.16901,41.6425604 Z M92.1724155,14.2568527 C90.5287681,13.0760845 88.5237923,12.507529 86.5049517,12.6496594 L79.7800483,12.6496594 L79.7800483,25.1054831 L86.526087,25.1054831 C88.552029,25.2539372 90.5637681,24.6684058 92.1935507,23.4559179 C92.8448551,22.8898309 93.3571739,22.1815459 93.6907729,21.3858454 C94.0245411,20.5901449 94.170628,19.7281643 94.1180435,18.867029 C94.1740097,18.0021739 94.0294444,17.1363043 93.6956763,16.3365628 C93.3617391,15.5368889 92.8477295,14.8251377 92.1935507,14.2568527 L92.1724155,14.2568527 Z M135.225628,29.7822947 L114.437826,29.7822947 C114.775314,31.4149517 115.729783,32.8541787 117.102391,33.8003623 C118.636135,34.8317633 120.457657,35.3501691 122.30471,35.2806763 C123.601739,35.3045169 124.892005,35.0894444 126.111256,34.6462802 C127.263382,34.1880676 128.313043,33.5051449 129.198696,32.6372464 L133.428116,37.2261353 C131.984831,38.7586957 130.219614,39.9519082 128.259444,40.7198792 C126.299444,41.4876812 124.193357,41.8113043 122.093188,41.6670773 C119.251594,41.7309903 116.436546,41.1070773 113.88814,39.84843 C111.606039,38.7411111 109.690338,37.0014251 108.368623,34.8364976 C107.108285,32.6115459 106.445821,30.097971 106.445821,27.5407729 C106.445821,24.9835749 107.108285,22.47 108.368623,20.2448792 C109.593116,18.1266184 111.369155,16.3799662 113.507367,15.1907101 C115.812633,13.9732174 118.386908,13.355087 120.993647,13.3931812 C123.532077,13.3539203 126.040072,13.9500193 128.289372,15.1272705 C130.44314,16.2570604 132.226957,17.9820531 133.428116,20.0969324 C134.706546,22.3964493 135.348889,24.9950725 135.289203,27.625314 C135.373744,27.7309903 135.331473,28.4500966 135.225628,29.7822947 Z M116.594976,20.9428502 C115.330072,22.0134783 114.520845,23.5259179 114.33215,25.1722705 L127.866498,25.1722705 C127.675097,23.5314976 126.875169,22.0222705 125.624807,20.9428502 C124.360918,19.8977536 122.75971,19.348913 121.120459,19.3989614 C119.474952,19.3495894 117.86715,19.8980918 116.594976,20.9428502 Z M146.668261,29.7822947 L167.434928,29.7822947 C167.540604,28.4500966 167.582874,27.7309903 167.582874,27.6887198 C167.642729,25.0584783 167.000217,22.4598551 165.721957,20.1603382 C164.526377,18.0483333 162.750338,16.3236957 160.604348,15.1906425 C158.310918,14.0259879 155.775024,13.419 153.202778,13.419 C150.630531,13.419 148.094638,14.0259879 145.801208,15.1906425 C143.613623,16.3578164 141.791256,18.1070048 140.535483,20.2448792 C139.253841,22.4601932 138.596111,24.9815459 138.632295,27.5406039 C138.5907,30.1033816 139.256546,32.6277778 140.556618,34.8364976 C141.878333,37.0014251 143.794203,38.7411111 146.076135,39.84843 C148.63215,41.1070773 151.453961,41.7309903 154.302488,41.6670773 C156.402319,41.8082609 158.507391,41.483285 160.467053,40.7156522 C162.426715,39.9478502 164.192271,38.7561594 165.637415,37.2261353 L161.407995,32.6372464 C160.522174,33.5049758 159.472681,34.1878986 158.320386,34.6461111 C157.101304,35.0894444 155.81087,35.3043478 154.513841,35.2806763 C152.666787,35.35 150.845435,34.8317633 149.311691,33.8003623 C147.937391,32.8597585 146.987826,31.4166425 146.668261,29.7822947 Z M146.562585,25.1721014 C146.743671,23.528285 147.545459,22.0155072 148.804106,20.9426812 C150.075435,19.9111111 151.67157,19.3641304 153.308454,19.3989614 C154.941449,19.3482367 156.536232,19.8974155 157.791667,20.9426812 C159.050314,22.0155072 159.852101,23.528285 160.033357,25.1721014 L146.562585,25.1721014 Z M172.913527,5.99521256 L172.913527,41.6772222 L180.86381,41.6772222 L180.86381,13.967756 C180.86715,12.9217802 180.664251,11.8855435 180.265217,10.9183937 C179.866184,9.95124396 179.281159,9.07218599 178.542271,8.33158937 C177.805072,7.59099275 176.927536,7.00339855 175.960386,6.60248792 C174.994928,6.20157729 173.958454,5.99521256 172.913527,5.99521256 Z M194.228019,29.7822947 L215.016667,29.7822947 C215.121498,28.4500966 215.163768,27.7309903 215.163768,27.6887198 C215.224638,25.0584783 214.582126,22.4598551 213.303865,20.1603382 C212.108454,18.0483333 210.331401,16.3236957 208.185749,15.1906425 C205.892995,14.0259879 203.356763,13.419 200.783333,13.419 C198.211594,13.419 195.675362,14.0259879 193.382609,15.1906425 C191.194686,16.3578164 189.371981,18.1070048 188.117391,20.2448792 C186.828986,22.4585024 186.164493,24.979686 186.193237,27.5406039 C186.157729,30.1052415 186.830676,32.6299758 188.137681,34.8364976 C189.459903,37.0014251 191.375604,38.7411111 193.658213,39.84843 C196.213043,41.1070773 199.035024,41.7309903 201.884058,41.6670773 C203.984058,41.8082609 206.08913,41.483285 208.048792,40.7156522 C210.008454,39.9478502 211.773671,38.7561594 213.219324,37.2261353 L208.988889,32.6372464 C208.102899,33.5049758 207.054589,34.1878986 205.901449,34.6461111 C204.682367,35.0894444 203.392271,35.3043478 202.095411,35.2806763 C200.249034,35.35 198.426329,34.8317633 196.892754,33.8003623 C195.519807,32.8541787 194.566184,31.4147826 194.228019,29.7822947 Z M194.143478,25.1721014 C194.31087,23.5237198 195.11401,22.0057005 196.385507,20.9426812 C197.665459,19.8982609 199.280193,19.3502657 200.932126,19.3989614 C202.563768,19.3521256 204.158213,19.9007971 205.416184,20.9426812 C206.674155,22.0155072 207.475604,23.528285 207.656522,25.1721014 L194.143478,25.1721014 Z M247.24372,14.0876522 L235.634541,41.5791546 L227.428986,41.5791546 L215.882367,14.0876522 L224.108213,14.0876522 L231.721981,32.7818116 L239.567391,14.0876522 L247.24372,14.0876522 Z M273.189372,20.6285266 C272.597585,19.0437198 271.667633,17.6065217 270.463768,16.4171473 C267.68913,14.2459638 264.211111,13.1698237 260.694203,13.3930797 C258.514734,13.3828502 256.34372,13.6746353 254.24372,14.2601329 C252.317874,14.7580121 250.493478,15.5881377 248.851691,16.7132101 L251.707488,22.4229952 C252.777778,21.5835024 253.998551,20.9521498 255.302174,20.5620773 C256.666667,20.1096135 258.09372,19.8742512 259.530918,19.8641063 C261.226812,19.7384783 262.91087,20.2345652 264.268599,21.2598792 C264.809662,21.7735507 265.232367,22.3993237 265.50628,23.0934058 C265.780193,23.7874879 265.898551,24.532971 265.854589,25.2779469 L259.510628,25.2779469 C256.38599,25.0202657 253.261353,25.7606763 250.586473,27.392657 C249.651449,28.0872464 248.902415,28.9992754 248.400242,30.0496135 C247.899758,31.0999517 247.663043,32.2568116 247.710386,33.4195894 C247.700242,34.9186715 248.126329,36.3883333 248.936232,37.6490097 C249.813768,38.9490821 251.048068,39.9694928 252.488647,40.5885024 C254.214976,41.3427778 256.083333,41.7108696 257.966908,41.6670773 C262.195652,41.6670773 264.924638,40.398285 266.426087,37.8393961 L266.426087,41.2653382 L273.891063,41.2653382 L273.891063,25.5951449 C274.019565,23.9082126 273.781159,22.2135024 273.189372,20.6285266 Z M265.91715,32.6583816 C265.52657,33.8255556 264.731884,34.8151932 263.676812,35.4497585 L263.654831,35.3652174 C262.559179,36.0084058 261.307971,36.3376087 260.038164,36.3168116 C258.874879,36.3863043 257.721739,36.066401 256.761353,35.4074879 C256.375845,35.1372947 256.063043,34.7754589 255.853382,34.3546135 C255.64372,33.933599 255.54058,33.4669324 255.555797,32.996715 C255.555797,30.8395652 257.184058,29.7822947 260.46256,29.7822947 L265.91715,29.7822947 L265.91715,32.6583816 Z M305.947343,16.7466715 C307.064976,17.9636232 307.920531,19.3964251 308.461594,20.956715 C309.004348,22.5170048 309.220773,24.1716425 309.099034,25.8188406 L309.099034,41.5524396 L301.125121,41.5524396 L301.125121,27.0453623 C301.26715,25.3051691 300.763285,23.573599 299.709903,22.1815459 C299.168841,21.6149517 298.507729,21.1765217 297.777295,20.8983816 C297.045169,20.6202415 296.260628,20.5094928 295.479469,20.5742512 C294.593478,20.5318116 293.709179,20.6753623 292.882367,20.995942 C292.055556,21.3165217 291.304831,21.8068599 290.679227,22.4353382 C289.38744,23.9797343 288.75,25.967971 288.902174,27.9758213 L288.902174,41.5524396 L280.929952,41.5524396 L280.929952,14.0609541 L288.54372,14.0609541 L288.54372,17.2964251 C289.632609,16.1137633 290.978502,15.1952415 292.47657,14.6107923 C294.12343,13.9784251 295.87343,13.6627319 297.636957,13.6802995 C299.157005,13.5986667 300.678744,13.8285338 302.109179,14.3557995 C303.537923,14.8830821 304.843237,15.6966546 305.947343,16.7466715 Z M334.079227,39.9319565 C333.211836,40.5458937 332.234541,40.9907488 331.20314,41.2431884 C330.017874,41.5267391 328.803865,41.668599 327.586473,41.6660628 C324.833816,41.853913 322.116667,40.958285 320.016667,39.1707488 C319.073188,38.2032609 318.347826,37.0474155 317.884541,35.7787923 C317.421256,34.5103382 317.231884,33.1581884 317.329952,31.8114493 L317.329952,23.3641063 L313.101208,23.3641063 L313.101208,17.2313285 L317.329952,17.2313285 L317.329952,5.96148068 C321.73285,5.96148068 325.302174,9.53105797 325.302174,13.9341594 L325.302174,17.2313285 L332.133092,17.2313285 L332.133092,23.3641063 L325.302174,23.3641063 L325.302174,31.7057729 C325.241304,32.6820531 325.559179,33.6446377 326.191546,34.3914734 C326.522947,34.7206763 326.92029,34.9758213 327.358213,35.1398309 C327.794444,35.3038406 328.262802,35.3731643 328.727778,35.3430676 C329.8843,35.3740097 331.015459,35.01657 331.94372,34.3278986 L334.079227,39.9319565 Z" id="Shape" fill="#262626"></path>
                <path d="M344.52343,41.7453623 C347.502657,41.7453623 349.918841,39.3305314 349.918841,36.3514734 C349.918841,33.3724155 347.502657,30.9574155 344.52343,30.9574155 C341.545894,30.9574155 339.12971,33.3724155 339.12971,36.3514734 C339.12971,39.3305314 341.545894,41.7453623 344.52343,41.7453623 Z" id="Path" fill="#17B086" fill-rule="nonzero"></path>
            </g>
        </g>
    </g>
</svg>