<?xml version="1.0" encoding="UTF-8"?>
<svg width="36px" height="36px" viewBox="0 0 36 36" version="1.1" xmlns="http://www.w3.org/2000/svg" xmlns:xlink="http://www.w3.org/1999/xlink">
    <!-- Generator: Sketch 63.1 (92452) - https://sketch.com -->
    <style>
        #logo-outline {
            fill: #000000;
            display: none;
        }     
        @media (prefers-color-scheme: dark) {
            #logo-outline {
                fill: #ffffff;
                display: block;
            }
            #logo{
                display: none;
            }
        }
    </style>
    <g id="logo-outline" stroke="none" stroke-width="1" fill-rule="evenodd">
        <g id="Blocks---Tests" transform="translate(-1108.000000, -673.000000)"  fill-rule="nonzero">
            <g id="logo_white_outline" transform="translate(1108.000000, 673.000000)">
                <path d="M5.08565087,4.94916981 L5.12189867,4.913551 C5.16671738,4.86954067 5.211783,4.82578267 5.2570932,4.78227922 C7.59189571,2.53746588 10.582448,0.964944078 13.9227491,0.384034599 C13.9722627,0.375946733 14.0219215,0.36752054 14.0716528,0.359314863 C14.1291336,0.349376228 14.1863706,0.340264128 14.2437065,0.331443342 C14.2634409,0.328807242 14.2836034,0.325734628 14.3037775,0.322698239 C14.4940257,0.293757068 14.6851707,0.268427129 14.8773386,0.246354318 C14.9155214,0.242143595 14.9538414,0.237865172 14.9921993,0.233717162 C15.0460322,0.22775597 15.099746,0.22222419 15.1535373,0.216947207 C15.2153608,0.210982472 15.2775536,0.205217374 15.3398418,0.19979567 C15.4815342,0.187408164 15.6239214,0.176854127 15.7668117,0.168093126 L15.4827213,0.187975269 C15.5339673,0.183956458 15.5852765,0.180169969 15.6366479,0.176616835 L15.7668117,0.168093126 L17.5582818,0.0582531566 L17.5575505,0.136283591 L35.0582502,0.136486842 L34.948417,1.92795096 C34.4112933,10.6888484 27.133875,17.5582819 18.3157923,17.5582819 L18.3157923,17.5582819 L17.5575505,17.5575535 L17.5582818,18.3157924 C17.5582818,27.0263351 10.8553763,34.2335659 2.24763187,34.9257683 L1.92796456,34.9484171 L0.136500275,35.0582532 L0.13628062,17.5575535 L0.0582501858,17.5582819 L0.168093219,15.7668092 C0.170769476,15.723161 0.173613038,15.6795598 0.176623264,15.6360063 C0.180183391,15.5852751 0.18396988,15.5339658 0.18798869,15.4827198 C0.191689632,15.4345934 0.195612589,15.3871017 0.199733475,15.3396687 C0.213283206,15.1850401 0.228878217,15.0308293 0.246565393,14.8772375 C0.277429422,14.6068091 0.314957868,14.3383105 0.358780816,14.0719926 C0.367533916,14.0219181 0.375960107,13.9722593 0.384605796,13.9226742 C0.970151403,10.5525425 2.56570529,7.53837931 4.84264267,5.19432532 C4.86874857,5.16763822 4.89545349,5.14029656 4.92225179,5.11304636 L4.92245347,5.11271975 L5.08565087,4.94916981 L5.08565087,4.94916981 Z M28.2274431,21.4748095 C31.9568633,21.4748095 34.980077,24.4980232 34.980077,28.2274432 C34.980077,31.9568633 31.9568633,34.980077 28.2274431,34.980077 C24.4980231,34.980077 21.4748094,31.9568633 21.4748094,28.2274432 C21.4748094,24.4980232 24.4980231,21.4748095 28.2274431,21.4748095 Z M28.2274431,24.8511264 C26.3627114,24.8511264 24.8511263,26.3627115 24.8511263,28.2274432 C24.8511263,30.092175 26.3627114,31.6037601 28.2274431,31.6037601 C30.092175,31.6037601 31.60376,30.092175 31.60376,28.2274432 C31.60376,26.3627115 30.092175,24.8511264 28.2274431,24.8511264 Z M14.1817588,17.5575535 L3.51207229,17.5575535 L3.51280364,31.3458095 L3.56715349,31.3352442 C9.57866832,30.1093778 14.0820754,24.8317661 14.1803255,18.5263494 L14.1803255,18.5263494 L14.1819649,18.3157924 L14.1817588,17.5575535 Z M14.1818745,3.77133295 C11.9034629,4.22741454 9.83110885,5.26697713 8.1315763,6.73025572 C8.12797958,6.7323757 8.12439864,6.73546634 8.12081939,6.73855885 L8.1315763,6.73025572 C7.99082194,6.85144365 7.85262478,6.97553788 7.71707956,7.10244764 C7.68301566,7.13393217 7.64910304,7.16606642 7.6153611,7.19837636 L7.71707956,7.10244764 C7.64979539,7.16544521 7.58316467,7.22913656 7.517199,7.29351058 L7.6153611,7.19837636 C7.54571823,7.26506356 7.47680237,7.33249916 7.40862621,7.40066988 L7.517199,7.29351058 C7.45095313,7.35815805 7.38537795,7.42349402 7.32048523,7.48950722 L7.40862621,7.40066988 C7.33779358,7.47149687 7.26775943,7.54311739 7.19853799,7.61551659 L7.32048523,7.48950722 C7.24676487,7.56450048 7.17392526,7.64036778 7.10198361,7.71709263 L7.19853799,7.61551659 C5.48865256,9.40389803 4.27466858,11.6674002 3.77133345,14.1818709 L14.1817588,14.1817618 L14.1818745,3.77133295 Z M31.3458095,3.51280372 L17.5575505,3.51207526 L17.5575505,14.1817618 L18.3157923,14.181965 C24.6073507,14.181965 29.9160827,9.7954181 31.2698324,3.86976031 L31.3352442,3.5671431 L31.3458095,3.51280372 Z" id="Combined-Shape"></path>
            </g>
        </g>
    </g>
    <g id="logo">
        <path d="M29.0231 36C32.8763 36 35.9999 32.8764 35.9999 29.0233C35.9999 25.1701 32.8763 22.0465 29.0231 22.0465C25.17 22.0465 22.0464 25.1701 22.0464 29.0233C22.0464 32.8764 25.17 36 29.0231 36Z" fill="#17B086"/>
        <path d="M18.7826 18C28.2915 18 36 10.2915 36 0.782612V0.782612C36 0.350389 35.6496 3.31825e-06 35.2174 3.26157e-06L17.2174 9.01156e-07C7.7085 -3.45787e-07 1.45257e-05 7.70849 1.32787e-05 17.2174V17.2174C1.3222e-05 17.6496 0.350399 18 0.782622 18L18.7826 18Z" fill="#FDDB60"/>
        <path d="M18 18.7826C18 28.2915 10.2915 36 0.782606 36V36C0.350383 36 -2.2169e-06 35.6496 -2.17911e-06 35.2174L-6.055e-07 17.2174C2.25795e-07 7.70848 7.70849 -8.11187e-06 17.2174 -7.28058e-06V-7.28058e-06C17.6496 -7.24279e-06 18 0.350379 18 0.782602L18 18.7826Z" fill="#5B25B3"/>
        <path fill-rule="evenodd" clipRule="evenodd" d="M18 18L18 0C8.05888 -8.6908e-07 9.11554e-06 8.05887 0 18L18 18Z" fill="#17B086"/>
    </g>
</svg>