<svg id="svg" version="1.1" width="400" height="104.63215258855587" viewBox="0 0 400 104.63215258855587" xmlns="http://www.w3.org/2000/svg" xmlns:xlink="http://www.w3.org/1999/xlink" ><g id="svgg"><path id="path0" d="M8.511 8.489 L -0.000 16.992 -0.000 50.349 L 0.000 83.707 8.571 92.270 C 13.285 96.980,17.185 100.833,17.237 100.833 C 17.290 100.833,17.333 82.083,17.333 59.167 L 17.333 17.500 39.136 17.500 C 53.644 17.500,61.270 17.559,61.928 17.675 C 62.987 17.863,64.530 18.318,64.667 18.483 C 64.712 18.538,65.264 18.846,65.892 19.167 C 67.070 19.768,69.516 21.895,69.918 22.667 C 70.038 22.896,70.329 23.308,70.567 23.583 C 72.860 26.238,72.759 34.847,70.408 37.083 C 70.312 37.175,69.966 37.587,69.639 38.000 C 69.313 38.412,62.173 45.612,53.773 53.999 C 45.373 62.386,38.500 69.317,38.500 69.401 C 38.500 69.484,45.548 76.591,54.161 85.193 L 69.823 100.833 81.985 100.833 C 89.902 100.833,94.183 100.775,94.250 100.667 C 94.306 100.575,87.363 93.520,78.819 84.989 L 63.285 69.478 72.518 60.260 C 82.066 50.725,82.676 50.092,83.913 48.417 C 84.319 47.867,84.800 47.223,84.981 46.987 C 85.785 45.940,87.533 42.411,88.116 40.659 C 88.465 39.609,88.801 38.711,88.864 38.664 C 89.646 38.071,90.228 28.846,89.695 25.500 C 89.432 23.849,88.958 21.771,88.821 21.667 C 88.760 21.621,88.587 21.156,88.437 20.634 C 88.053 19.306,87.172 17.033,86.942 16.779 C 86.836 16.662,86.422 15.932,86.020 15.158 C 85.619 14.384,85.122 13.563,84.915 13.333 C 84.709 13.104,84.339 12.592,84.093 12.195 C 83.284 10.889,79.854 7.333,78.704 6.607 C 78.317 6.363,78.000 6.095,78.000 6.012 C 78.000 5.930,77.363 5.479,76.585 5.011 C 75.807 4.542,74.907 3.980,74.584 3.761 C 74.262 3.543,73.417 3.124,72.707 2.830 C 71.998 2.536,71.042 2.122,70.583 1.909 C 69.600 1.452,67.054 0.780,64.833 0.391 C 63.420 0.143,60.765 0.106,40.136 0.049 L 17.023 -0.014 8.511 8.489 " stroke="none" fill="#e43454" fill-rule="evenodd"></path><path id="path1" d="M190.001 41.125 C 190.001 67.402,189.982 66.769,190.897 69.712 C 191.118 70.424,191.626 71.534,192.025 72.178 C 192.424 72.822,192.825 73.480,192.917 73.639 C 193.329 74.356,193.827 74.833,194.166 74.833 C 194.597 74.833,197.667 73.068,197.667 72.820 C 197.667 72.643,196.177 69.977,195.998 69.833 C 195.817 69.689,195.330 68.335,194.955 66.934 L 194.592 65.583 194.542 41.208 L 194.491 16.833 192.246 16.833 L 190.000 16.833 190.001 41.125 M386.417 21.267 C 385.592 21.392,384.748 21.535,384.542 21.584 L 384.167 21.673 384.167 27.003 L 384.167 32.333 380.333 32.333 L 376.500 32.333 376.500 34.250 L 376.500 36.167 380.327 36.167 L 384.153 36.167 384.210 51.292 C 384.260 64.641,384.299 66.534,384.539 67.418 C 384.892 68.718,385.402 69.899,385.781 70.294 C 385.947 70.466,386.368 70.922,386.716 71.305 C 388.305 73.056,391.983 73.880,396.417 73.480 C 398.796 73.265,398.493 73.589,398.289 71.479 L 398.118 69.708 395.619 69.702 C 394.245 69.698,393.075 69.625,393.019 69.539 C 392.963 69.452,392.536 69.292,392.071 69.181 C 390.241 68.747,389.191 67.310,388.835 64.750 C 388.741 64.073,388.672 57.828,388.670 49.875 L 388.667 36.167 393.250 36.167 L 397.833 36.167 397.833 34.250 L 397.833 32.333 393.250 32.333 L 388.667 32.333 388.667 26.667 L 388.667 21.000 388.292 21.019 C 388.085 21.029,387.242 21.141,386.417 21.267 M115.167 31.946 C 113.957 32.068,111.420 32.525,111.337 32.635 C 111.289 32.698,110.612 32.967,109.833 33.233 C 107.114 34.160,104.744 36.190,103.567 38.600 C 103.213 39.324,102.874 39.954,102.814 40.000 C 101.605 40.924,100.646 50.990,101.171 57.250 C 101.438 60.431,102.323 64.567,102.828 65.000 C 102.882 65.046,103.236 65.721,103.615 66.500 C 104.041 67.376,104.658 68.298,105.233 68.917 C 105.744 69.467,106.163 69.967,106.164 70.030 C 106.166 70.092,106.617 70.416,107.167 70.750 C 107.717 71.084,108.261 71.446,108.375 71.554 C 108.911 72.059,110.995 72.812,112.872 73.179 C 115.444 73.682,123.036 73.679,128.085 73.172 C 131.343 72.845,134.418 72.453,134.519 72.352 C 134.619 72.252,134.265 68.537,134.145 68.429 C 134.111 68.398,133.258 68.477,132.250 68.603 C 129.452 68.954,125.205 69.332,124.052 69.333 C 123.484 69.333,122.973 69.408,122.917 69.500 C 122.790 69.705,117.667 69.729,117.667 69.524 C 117.667 69.445,117.085 69.332,116.375 69.272 C 113.907 69.063,111.370 68.260,110.372 67.373 C 110.030 67.069,109.552 66.713,109.310 66.582 C 108.517 66.152,106.904 63.258,106.416 61.388 C 106.141 60.339,105.572 56.366,105.683 56.272 C 105.720 56.240,108.263 56.126,111.333 56.019 C 118.579 55.765,123.000 55.514,123.417 55.334 C 123.600 55.254,124.462 55.142,125.333 55.084 C 127.225 54.958,132.705 54.401,134.605 54.140 L 135.961 53.955 136.064 53.204 C 136.419 50.615,135.908 42.973,135.331 42.250 C 135.258 42.158,135.071 41.645,134.916 41.109 C 134.518 39.734,133.868 38.357,133.266 37.612 C 131.223 35.084,129.244 33.684,126.750 33.002 C 126.292 32.877,125.879 32.727,125.833 32.669 C 125.386 32.099,118.356 31.623,115.167 31.946 M158.250 32.069 C 156.581 32.288,155.729 32.461,155.417 32.643 C 155.325 32.697,154.684 32.933,153.991 33.168 C 151.293 34.086,147.500 37.461,147.500 38.944 C 147.500 39.066,147.434 39.167,147.354 39.167 C 146.963 39.167,145.829 43.043,145.574 45.250 C 145.511 45.800,145.374 46.355,145.271 46.484 C 144.988 46.837,145.007 58.530,145.292 58.625 C 145.406 58.663,145.500 58.894,145.500 59.139 C 145.500 59.671,145.880 61.694,146.240 63.083 C 147.048 66.203,149.419 69.668,151.667 71.017 C 152.171 71.319,152.621 71.619,152.667 71.684 C 154.077 73.666,164.546 74.126,176.292 72.722 C 179.037 72.394,178.784 72.709,178.476 70.003 L 178.286 68.327 177.768 68.417 C 176.427 68.649,171.194 69.179,169.285 69.276 C 168.113 69.336,167.115 69.449,167.067 69.526 C 166.953 69.711,161.879 69.709,161.765 69.524 C 161.717 69.446,161.094 69.332,160.380 69.272 C 156.852 68.971,153.596 67.409,152.392 65.439 C 152.160 65.060,151.822 64.539,151.640 64.282 C 150.866 63.187,149.847 58.954,149.836 56.792 L 149.833 56.167 151.042 56.166 C 154.944 56.162,167.333 55.510,167.333 55.308 C 167.333 55.230,167.657 55.167,168.053 55.167 C 168.916 55.167,176.861 54.408,178.767 54.144 L 180.117 53.956 180.217 51.634 C 180.327 49.062,180.080 44.448,179.828 44.361 C 179.739 44.331,179.667 44.133,179.667 43.921 C 179.667 42.884,178.308 38.766,177.823 38.333 C 177.772 38.287,177.384 37.761,176.961 37.163 C 176.529 36.553,175.786 35.786,175.266 35.413 C 174.757 35.049,174.339 34.695,174.337 34.627 C 174.331 34.426,172.385 33.505,171.193 33.139 C 170.583 32.952,170.004 32.734,169.907 32.656 C 169.133 32.028,161.488 31.642,158.250 32.069 M218.750 31.999 C 217.316 32.176,215.612 32.521,215.500 32.658 C 215.454 32.713,214.967 32.897,214.417 33.067 C 213.360 33.391,211.238 34.397,211.141 34.619 C 211.109 34.692,210.644 35.123,210.108 35.577 C 208.334 37.079,206.167 41.106,206.167 42.899 C 206.167 43.046,206.101 43.167,206.020 43.167 C 205.001 43.167,204.967 60.447,205.983 61.739 C 206.060 61.837,206.219 62.329,206.336 62.833 C 206.747 64.595,207.593 66.593,208.176 67.176 C 208.354 67.354,208.500 67.605,208.500 67.732 C 208.500 68.103,210.843 70.492,211.667 70.961 C 212.079 71.196,212.567 71.515,212.750 71.669 C 215.267 73.787,224.435 74.153,237.125 72.642 L 238.833 72.439 238.821 71.928 C 238.814 71.647,238.720 70.742,238.612 69.917 L 238.417 68.417 237.917 68.454 C 237.642 68.475,236.067 68.646,234.417 68.835 C 232.767 69.024,230.460 69.225,229.292 69.282 C 228.123 69.338,227.167 69.448,227.167 69.526 C 227.167 69.603,225.967 69.667,224.500 69.667 C 223.033 69.667,221.833 69.603,221.833 69.525 C 221.833 69.447,221.252 69.337,220.542 69.281 C 218.368 69.110,215.472 68.217,214.559 67.437 C 213.220 66.294,212.500 65.592,212.500 65.431 C 212.500 65.326,212.361 65.122,212.192 64.977 C 211.751 64.599,210.914 62.475,210.591 60.917 C 210.440 60.183,210.245 59.454,210.159 59.296 C 210.073 59.138,209.953 58.369,209.893 57.588 L 209.784 56.167 211.017 56.166 C 214.954 56.162,227.500 55.510,227.500 55.309 C 227.500 55.231,227.824 55.167,228.219 55.167 C 229.074 55.167,236.913 54.417,238.583 54.175 C 239.225 54.083,239.852 54.005,239.976 54.003 C 240.319 53.998,240.149 45.254,239.770 43.417 C 239.326 41.271,238.603 39.167,238.308 39.167 C 238.230 39.167,238.167 39.066,238.167 38.943 C 238.167 37.495,234.202 34.072,231.535 33.218 C 230.736 32.962,230.043 32.699,229.995 32.633 C 229.598 32.101,221.591 31.650,218.750 31.999 M303.000 31.944 C 300.590 32.112,296.559 32.554,296.417 32.666 C 296.325 32.738,295.444 32.894,294.458 33.013 L 292.667 33.229 292.667 33.865 C 292.667 34.214,292.742 34.500,292.833 34.500 C 292.925 34.500,293.001 34.819,293.002 35.208 C 293.003 35.598,293.051 36.205,293.110 36.558 L 293.216 37.200 294.316 37.084 C 294.921 37.020,295.492 36.907,295.583 36.833 C 296.773 35.871,313.118 35.839,313.826 36.797 C 313.876 36.865,314.310 37.101,314.791 37.321 C 317.295 38.471,318.333 40.859,318.333 45.468 L 318.333 47.783 314.792 47.898 C 307.893 48.122,300.146 48.711,300.028 49.021 C 299.997 49.101,299.803 49.167,299.596 49.167 C 296.280 49.167,292.247 52.114,291.140 55.348 C 291.033 55.661,290.885 55.957,290.811 56.007 C 290.207 56.412,289.836 62.982,290.292 65.205 C 290.826 67.809,293.456 71.487,294.792 71.498 C 294.906 71.499,295.000 71.566,295.000 71.646 C 295.000 72.961,305.574 74.028,311.833 73.345 C 315.096 72.990,319.712 72.036,320.000 71.658 C 320.046 71.598,320.496 71.415,321.000 71.252 C 321.504 71.089,322.126 70.849,322.381 70.720 L 322.845 70.485 322.790 55.534 C 322.736 41.057,322.724 40.546,322.394 39.417 C 321.479 36.283,319.344 34.051,316.333 33.084 C 315.829 32.922,315.342 32.734,315.250 32.666 C 314.403 32.042,307.462 31.633,303.000 31.944 M348.583 32.000 C 346.025 32.239,343.997 32.537,343.903 32.689 C 343.854 32.768,343.658 32.833,343.469 32.833 C 342.531 32.833,336.526 34.371,336.333 34.660 C 336.287 34.729,335.978 34.874,335.645 34.982 C 334.790 35.261,334.833 34.210,334.833 54.688 L 334.833 73.167 337.167 73.167 L 339.500 73.167 339.500 56.357 C 339.500 47.111,339.547 39.206,339.604 38.790 C 339.720 37.943,339.863 37.869,342.583 37.241 C 343.225 37.093,343.900 36.903,344.083 36.820 C 345.547 36.155,353.342 35.781,356.313 36.234 C 358.557 36.576,362.167 38.284,362.167 39.005 C 362.167 39.098,362.348 39.453,362.570 39.795 C 362.792 40.137,363.070 40.754,363.187 41.167 C 363.304 41.579,363.454 41.955,363.519 42.001 C 363.909 42.278,364.000 45.491,364.000 58.929 L 364.000 73.167 366.333 73.167 L 368.667 73.167 368.661 59.875 C 368.655 44.223,368.419 39.279,367.667 39.028 C 367.575 38.997,367.500 38.861,367.500 38.726 C 367.500 36.774,363.878 33.434,361.174 32.893 C 360.895 32.837,360.667 32.734,360.667 32.664 C 360.667 32.104,352.356 31.647,348.583 32.000 M246.667 32.602 C 246.667 32.942,247.712 35.766,248.325 37.083 C 248.582 37.633,249.103 38.981,249.485 40.077 C 249.866 41.174,250.239 42.111,250.313 42.161 C 250.386 42.210,250.565 42.587,250.708 43.000 C 251.338 44.805,252.017 46.582,252.262 47.063 C 252.407 47.349,252.679 47.996,252.865 48.500 C 253.051 49.004,253.465 50.129,253.786 51.000 C 254.106 51.871,254.421 52.621,254.485 52.667 C 254.549 52.712,254.963 53.762,255.405 55.000 C 255.847 56.237,256.300 57.400,256.410 57.583 C 256.587 57.877,257.565 60.426,258.183 62.208 C 258.303 62.552,258.455 62.833,258.522 62.833 C 258.589 62.833,258.694 63.002,258.755 63.208 C 259.090 64.347,260.119 67.076,260.605 68.117 C 260.914 68.778,261.167 69.389,261.167 69.476 C 261.167 69.841,262.140 71.875,262.577 72.423 C 264.060 74.283,266.824 73.928,267.820 71.750 C 267.988 71.383,268.389 70.521,268.711 69.833 C 269.033 69.146,269.413 68.246,269.556 67.833 C 270.241 65.853,270.543 65.076,270.658 65.000 C 270.727 64.954,271.140 63.942,271.576 62.750 C 272.011 61.558,272.461 60.433,272.576 60.250 C 272.834 59.836,274.500 55.458,274.500 55.193 C 274.500 55.087,274.565 55.000,274.644 55.000 C 274.723 55.000,274.905 54.681,275.048 54.292 C 276.331 50.793,276.736 49.738,276.825 49.667 C 276.881 49.621,277.139 49.021,277.397 48.333 C 277.655 47.646,278.062 46.558,278.303 45.917 C 278.543 45.275,278.785 44.712,278.842 44.667 C 278.899 44.621,279.262 43.721,279.650 42.667 C 280.699 39.812,280.721 39.757,280.853 39.665 C 280.920 39.618,281.084 39.280,281.217 38.915 C 281.351 38.549,281.702 37.612,281.997 36.833 C 282.292 36.054,282.575 35.267,282.627 35.083 C 282.678 34.900,282.778 34.712,282.847 34.665 C 283.015 34.552,283.667 32.888,283.667 32.573 C 283.667 32.094,278.932 32.310,278.863 32.792 C 278.834 32.998,278.751 33.167,278.678 33.167 C 278.605 33.167,278.428 33.485,278.285 33.875 C 277.206 36.812,276.810 37.836,276.529 38.417 C 276.352 38.783,275.885 39.983,275.493 41.083 C 275.100 42.183,274.729 43.121,274.667 43.167 C 274.605 43.212,274.238 44.112,273.850 45.167 C 272.818 47.975,272.778 48.076,272.668 48.167 C 272.544 48.269,271.988 49.708,271.220 51.915 C 270.902 52.830,270.582 53.618,270.510 53.665 C 270.438 53.712,269.983 54.837,269.500 56.167 C 269.017 57.496,268.573 58.621,268.514 58.667 C 268.454 58.712,268.195 59.313,267.938 60.000 C 267.680 60.688,267.289 61.720,267.068 62.293 C 266.847 62.867,266.667 63.442,266.667 63.571 C 266.667 63.700,266.594 63.831,266.505 63.861 C 266.416 63.892,266.114 64.552,265.834 65.329 C 265.321 66.752,265.000 67.316,265.000 66.795 C 265.000 66.646,264.903 66.425,264.784 66.304 C 264.665 66.182,264.360 65.483,264.106 64.750 C 263.418 62.762,262.774 61.094,262.659 61.000 C 262.558 60.918,261.793 58.866,261.136 56.917 C 260.951 56.367,260.739 55.879,260.665 55.833 C 260.538 55.754,260.236 54.969,259.478 52.753 C 259.290 52.205,258.987 51.455,258.803 51.086 C 258.620 50.718,258.296 49.929,258.083 49.333 C 257.170 46.774,256.659 45.440,256.525 45.268 C 256.446 45.166,256.302 44.858,256.205 44.583 C 255.069 41.378,254.649 40.262,254.517 40.104 C 254.431 40.001,253.972 38.829,253.496 37.500 C 253.020 36.171,252.564 35.058,252.482 35.028 C 252.400 34.997,252.333 34.887,252.333 34.782 C 252.333 34.677,252.134 34.083,251.890 33.462 L 251.447 32.333 249.057 32.333 C 246.970 32.333,246.667 32.367,246.667 32.602 M122.981 36.247 C 126.985 37.043,130.104 39.804,130.876 43.235 C 130.981 43.701,131.142 44.135,131.235 44.198 C 131.334 44.266,131.431 45.606,131.471 47.463 L 131.539 50.613 129.394 50.808 C 128.215 50.915,127.006 51.002,126.708 51.001 C 126.410 51.001,126.167 51.063,126.167 51.139 C 126.167 51.346,109.520 52.324,105.857 52.332 L 105.463 52.333 105.576 50.292 C 106.019 42.253,107.434 39.157,111.575 37.174 C 114.277 35.880,119.142 35.485,122.981 36.247 M167.083 36.257 C 168.587 36.559,171.502 37.912,172.210 38.636 C 174.716 41.200,175.500 43.511,175.500 48.338 L 175.500 50.617 173.375 50.809 C 172.206 50.916,171.044 51.002,170.792 51.001 C 170.540 51.001,170.333 51.064,170.333 51.142 C 170.333 51.279,169.848 51.322,164.250 51.671 C 161.899 51.817,150.770 52.332,149.932 52.333 C 149.629 52.333,149.620 52.219,149.723 49.830 C 149.944 44.714,150.753 41.674,152.420 39.693 C 152.647 39.423,152.833 39.122,152.833 39.023 C 152.833 38.799,155.005 37.371,155.718 37.127 C 156.011 37.027,156.287 36.894,156.333 36.830 C 156.517 36.576,158.420 36.165,160.500 35.929 C 161.695 35.793,165.795 35.997,167.083 36.257 M227.512 36.336 C 228.371 36.527,229.114 36.742,229.162 36.812 C 229.210 36.882,229.574 37.067,229.970 37.223 C 231.430 37.798,232.431 38.641,234.057 40.667 C 235.121 41.992,236.349 50.059,235.561 50.546 C 235.477 50.597,234.323 50.733,232.996 50.848 C 231.669 50.962,230.546 51.108,230.500 51.172 C 230.373 51.348,213.068 52.331,210.042 52.333 C 209.506 52.333,209.641 45.892,210.182 45.694 C 210.265 45.664,210.333 45.472,210.333 45.268 C 210.333 44.201,211.749 40.167,212.123 40.167 C 212.202 40.167,212.480 39.829,212.741 39.416 C 214.584 36.500,221.642 35.029,227.512 36.336 M318.293 59.702 L 318.250 67.736 317.250 68.042 C 315.782 68.490,312.391 69.152,310.934 69.275 C 310.237 69.334,309.667 69.446,309.667 69.524 C 309.667 69.603,308.129 69.667,306.250 69.667 C 304.371 69.667,302.833 69.602,302.833 69.524 C 302.833 69.445,302.327 69.334,301.708 69.275 C 298.313 68.956,295.944 67.476,295.300 65.271 C 295.190 64.893,295.021 64.530,294.925 64.464 C 294.814 64.389,294.750 63.248,294.750 61.333 C 294.750 59.419,294.814 58.278,294.925 58.202 C 295.021 58.137,295.189 57.783,295.298 57.417 C 295.826 55.645,297.472 53.924,298.993 53.552 C 299.226 53.495,299.460 53.383,299.513 53.302 C 299.942 52.652,308.890 51.815,316.710 51.692 L 318.337 51.667 318.293 59.702 M111.867 87.957 C 111.921 88.987,112.087 89.140,112.930 88.928 C 113.288 88.838,113.333 88.735,113.333 88.015 C 113.333 87.132,113.200 87.000,112.311 87.000 L 111.817 87.000 111.867 87.957 M242.167 93.250 C 242.167 96.784,242.231 99.500,242.315 99.500 C 242.396 99.500,242.510 99.744,242.568 100.042 C 242.760 101.023,243.204 101.427,243.814 101.175 C 244.421 100.923,244.435 100.823,243.996 99.857 C 243.687 99.176,243.667 98.752,243.667 93.065 L 243.667 87.000 242.917 87.000 L 242.167 87.000 242.167 93.250 M246.000 93.177 L 246.000 99.355 246.407 100.245 C 246.899 101.319,247.044 101.425,247.677 101.162 C 248.260 100.921,248.270 100.810,247.792 99.833 C 247.439 99.110,247.424 98.869,247.368 93.042 L 247.311 87.000 246.655 87.000 L 246.000 87.000 246.000 93.177 M249.901 87.231 C 249.608 87.994,249.910 88.916,250.469 88.970 C 251.361 89.055,251.787 88.275,251.399 87.264 C 251.268 86.923,250.030 86.896,249.901 87.231 M335.500 93.917 L 335.500 100.833 336.167 100.833 L 336.833 100.833 336.833 96.583 C 336.833 92.602,336.852 92.333,337.133 92.333 C 337.298 92.333,337.523 92.244,337.632 92.135 C 338.008 91.759,340.494 91.880,341.195 92.309 C 342.086 92.855,342.167 93.265,342.167 97.275 L 342.167 100.833 342.917 100.833 L 343.667 100.833 343.667 97.083 C 343.667 95.015,343.600 93.333,343.519 93.333 C 343.438 93.333,343.322 93.006,343.262 92.606 C 343.151 91.866,342.791 91.405,342.000 90.990 C 341.530 90.743,338.473 90.672,337.458 90.884 L 336.833 91.015 336.833 89.008 L 336.833 87.000 336.167 87.000 L 335.500 87.000 335.500 93.917 M367.333 93.167 C 367.333 96.558,367.393 99.333,367.465 99.333 C 367.538 99.333,367.684 99.652,367.789 100.042 C 368.101 101.195,368.352 101.435,368.978 101.176 C 369.590 100.922,369.610 100.779,369.170 99.810 C 368.862 99.129,368.840 98.701,368.837 93.042 L 368.833 87.000 368.083 87.000 L 367.333 87.000 367.333 93.167 M144.417 87.816 C 142.681 88.420,142.040 89.003,141.652 90.333 C 141.531 90.746,141.354 91.137,141.258 91.202 C 141.008 91.372,141.020 97.306,141.271 97.464 C 141.374 97.530,141.512 97.846,141.578 98.167 C 142.037 100.410,144.435 101.401,148.249 100.924 L 149.167 100.809 149.167 100.156 L 149.167 99.504 147.706 99.607 C 143.611 99.898,142.582 98.820,142.589 94.250 C 142.596 89.851,143.659 88.772,147.706 89.059 L 149.167 89.163 149.167 88.519 C 149.167 87.931,149.121 87.866,148.646 87.771 C 147.962 87.634,144.844 87.667,144.417 87.816 M103.001 93.208 C 103.002 100.922,103.051 101.001,107.833 100.997 C 109.958 100.995,110.167 100.929,110.167 100.256 L 110.167 99.717 107.937 99.623 C 104.167 99.465,104.333 99.772,104.333 92.989 L 104.333 87.833 103.667 87.833 L 103.000 87.833 103.001 93.208 M211.167 94.333 L 211.167 100.833 211.833 100.833 L 212.500 100.833 212.500 94.333 L 212.500 87.833 211.833 87.833 L 211.167 87.833 211.167 94.333 M308.000 88.500 L 308.000 89.167 309.833 89.167 L 311.667 89.167 311.667 95.000 L 311.667 100.833 312.333 100.833 L 313.000 100.833 313.000 95.000 L 313.000 89.167 314.750 89.167 L 316.500 89.167 316.500 88.500 L 316.500 87.833 312.250 87.833 L 308.000 87.833 308.000 88.500 M173.375 88.277 C 173.235 88.334,173.167 88.764,173.167 89.597 L 173.167 90.833 172.167 90.833 L 171.167 90.833 171.167 91.417 L 171.167 92.000 172.167 92.000 L 173.167 92.000 173.167 95.781 C 173.167 100.652,173.340 101.000,175.768 101.000 L 176.853 101.000 176.802 100.375 C 176.750 99.752,176.747 99.750,175.879 99.662 C 174.560 99.530,174.590 99.620,174.532 95.575 L 174.482 92.000 175.574 92.000 L 176.667 92.000 176.667 91.417 L 176.667 90.833 175.583 90.833 L 174.500 90.833 174.500 89.500 L 174.500 88.167 174.042 88.180 C 173.790 88.187,173.490 88.231,173.375 88.277 M200.708 88.277 C 200.568 88.334,200.500 88.764,200.500 89.597 L 200.500 90.833 199.500 90.833 L 198.500 90.833 198.500 91.417 L 198.500 92.000 199.500 92.000 L 200.500 92.000 200.501 95.792 C 200.501 100.721,200.680 101.081,203.071 100.966 C 204.512 100.896,204.669 99.667,203.237 99.667 C 201.722 99.667,201.672 99.527,201.669 95.292 L 201.667 92.000 202.750 92.000 L 203.833 92.000 203.833 91.417 L 203.833 90.833 202.750 90.833 L 201.667 90.833 201.667 89.500 C 201.667 88.100,201.542 87.941,200.708 88.277 M227.042 88.277 C 226.901 88.334,226.833 88.764,226.833 89.597 L 226.833 90.833 225.917 90.833 L 225.000 90.833 225.000 91.417 L 225.000 92.000 225.917 92.000 L 226.833 92.000 226.833 95.580 C 226.833 100.553,227.053 101.000,229.495 101.000 L 230.500 101.000 230.500 100.333 L 230.500 99.667 229.708 99.661 C 228.190 99.650,228.167 99.587,228.167 95.515 L 228.167 92.000 229.333 92.000 L 230.500 92.000 230.500 91.417 L 230.500 90.833 229.333 90.833 L 228.167 90.833 228.167 89.500 L 228.167 88.167 227.708 88.180 C 227.456 88.187,227.156 88.231,227.042 88.277 M128.026 90.835 C 125.915 91.281,125.416 92.239,125.419 95.833 C 125.424 100.331,126.267 101.122,130.879 100.958 C 133.553 100.863,133.758 100.794,133.592 100.037 L 133.483 99.542 130.938 99.563 L 128.394 99.583 127.699 99.104 C 127.215 98.770,126.953 98.440,126.836 98.020 C 126.509 96.844,126.341 96.917,129.893 96.693 C 134.150 96.426,134.054 96.474,133.956 94.656 C 133.888 93.405,133.681 92.609,133.350 92.333 C 133.295 92.287,133.168 92.100,133.068 91.917 C 132.566 90.995,129.935 90.431,128.026 90.835 M153.187 90.836 C 151.358 91.222,150.600 92.337,150.404 94.926 C 150.075 99.289,151.300 101.001,154.749 100.999 C 158.179 100.997,159.086 99.897,159.080 95.750 C 159.073 91.454,157.290 89.968,153.187 90.836 M164.500 90.764 C 162.607 91.098,162.078 91.214,161.731 91.372 L 161.333 91.554 161.333 96.193 L 161.333 100.833 162.083 100.833 L 162.833 100.833 162.833 96.670 L 162.833 92.506 163.292 92.397 C 163.544 92.337,163.850 92.208,163.972 92.112 C 164.435 91.746,166.864 91.879,167.459 92.303 C 168.374 92.956,168.406 93.111,168.472 97.125 L 168.532 100.833 169.183 100.833 L 169.833 100.833 169.833 96.833 C 169.833 94.278,169.773 92.833,169.667 92.833 C 169.575 92.833,169.500 92.717,169.500 92.575 C 169.500 91.242,166.973 90.327,164.500 90.764 M180.692 90.835 C 178.582 91.281,178.083 92.239,178.085 95.833 C 178.087 100.563,179.389 101.494,185.157 100.891 C 186.263 100.776,186.441 100.619,186.265 99.918 L 186.161 99.503 183.948 99.609 C 181.010 99.750,179.882 99.332,179.488 97.957 C 179.173 96.861,179.031 96.919,182.545 96.703 C 186.566 96.455,186.665 96.416,186.661 95.083 C 186.652 91.641,184.413 90.048,180.692 90.835 M191.750 90.765 C 190.673 90.915,189.236 91.224,188.958 91.364 C 188.691 91.499,188.667 91.901,188.667 96.173 L 188.667 100.833 189.417 100.833 L 190.167 100.833 190.167 96.661 C 190.167 92.835,190.191 92.482,190.458 92.396 C 190.619 92.345,190.923 92.220,191.135 92.118 C 191.346 92.017,192.140 91.933,192.900 91.933 C 195.391 91.933,195.648 92.463,195.659 97.625 L 195.667 100.833 196.344 100.833 L 197.021 100.833 196.968 96.625 C 196.907 91.818,196.874 91.679,195.682 91.136 C 194.935 90.795,192.907 90.604,191.750 90.765 M218.167 90.769 C 217.846 90.808,217.040 90.956,216.375 91.098 L 215.167 91.356 215.167 96.095 L 215.167 100.833 215.833 100.833 L 216.500 100.833 216.500 96.670 L 216.500 92.506 216.958 92.394 C 217.210 92.332,217.465 92.209,217.524 92.119 C 217.582 92.029,218.295 91.947,219.107 91.936 C 221.817 91.901,222.000 92.237,222.000 97.245 L 222.000 100.833 222.763 100.833 L 223.526 100.833 223.471 96.792 C 223.393 90.982,222.718 90.216,218.167 90.769 M234.353 90.847 C 233.473 91.019,232.937 91.350,232.546 91.961 C 232.386 92.211,232.163 92.513,232.050 92.630 C 231.744 92.952,231.599 93.907,231.591 95.667 C 231.569 100.339,233.151 101.484,238.809 100.893 L 239.833 100.786 239.833 100.146 L 239.833 99.506 237.537 99.611 C 234.235 99.761,233.487 99.389,233.117 97.409 L 233.022 96.902 236.303 96.694 C 238.107 96.579,239.608 96.414,239.639 96.326 C 239.669 96.238,239.801 96.167,239.931 96.167 C 240.232 96.167,240.261 93.936,239.972 92.973 C 239.411 91.100,237.242 90.279,234.353 90.847 M256.182 90.847 C 254.169 91.242,253.445 92.514,253.436 95.667 C 253.427 98.561,253.619 99.122,254.994 100.227 C 255.734 100.821,257.702 101.021,259.458 100.682 L 260.167 100.545 260.164 101.314 C 260.158 103.192,258.275 103.801,254.725 103.073 C 254.237 102.973,253.709 103.765,254.043 104.098 C 254.526 104.582,259.368 104.555,260.417 104.063 C 261.644 103.487,261.666 103.361,261.666 96.971 L 261.667 91.359 261.125 91.188 C 259.564 90.696,257.632 90.563,256.182 90.847 M266.750 90.823 C 265.838 90.979,265.014 91.440,264.844 91.890 C 264.765 92.095,264.587 92.359,264.448 92.474 C 264.068 92.789,263.778 94.864,263.884 96.494 C 264.145 100.471,265.768 101.455,271.142 100.893 L 272.167 100.786 272.167 100.164 L 272.167 99.541 269.625 99.562 C 266.316 99.590,265.821 99.336,265.426 97.410 L 265.322 96.904 268.619 96.695 C 270.433 96.580,271.942 96.414,271.972 96.326 C 272.003 96.238,272.143 96.167,272.284 96.167 C 272.689 96.167,272.510 93.304,272.049 92.417 C 271.285 90.947,269.374 90.373,266.750 90.823 M277.167 90.839 C 274.356 91.317,274.481 91.046,274.539 96.517 L 274.583 100.750 275.292 100.801 L 276.000 100.852 276.000 96.679 L 276.000 92.506 276.458 92.397 C 276.710 92.337,277.015 92.209,277.136 92.114 C 277.588 91.758,280.026 91.887,280.695 92.303 C 281.586 92.858,281.667 93.269,281.667 97.275 L 281.667 100.833 282.439 100.833 L 283.210 100.833 283.135 96.736 C 283.088 94.214,282.993 92.597,282.888 92.528 C 282.795 92.467,282.613 92.192,282.484 91.917 C 282.017 90.919,279.590 90.428,277.167 90.839 M288.024 90.822 C 285.740 91.407,285.417 92.017,285.417 95.750 C 285.417 98.570,285.728 99.850,286.480 100.126 C 286.628 100.180,286.808 100.321,286.880 100.439 C 287.168 100.916,289.838 101.191,291.313 100.896 C 291.786 100.801,291.833 100.735,291.833 100.157 L 291.833 99.522 290.351 99.618 C 287.465 99.805,286.576 98.849,286.593 95.579 C 286.602 93.655,286.619 93.599,287.442 92.776 C 288.270 91.948,288.327 91.930,290.113 91.945 L 291.833 91.959 291.833 91.489 C 291.833 91.231,291.765 90.977,291.681 90.926 C 291.406 90.755,288.595 90.676,288.024 90.822 M295.772 90.840 C 293.758 91.348,293.004 92.709,293.001 95.844 C 292.996 100.236,294.539 101.369,299.915 100.922 L 301.333 100.803 301.333 100.168 L 301.333 99.533 298.699 99.558 C 295.481 99.589,295.015 99.398,294.564 97.863 C 294.243 96.774,293.857 96.923,297.590 96.695 C 301.696 96.445,301.664 96.460,301.665 94.786 C 301.669 91.633,299.196 89.978,295.772 90.840 M319.187 90.847 C 318.306 91.020,317.769 91.351,317.381 91.961 C 317.222 92.211,317.041 92.454,316.981 92.500 C 316.291 93.021,316.326 98.062,317.027 99.096 C 318.239 100.885,318.754 101.072,322.134 100.960 C 324.730 100.874,324.889 100.818,324.733 100.038 L 324.628 99.513 322.522 99.611 C 319.306 99.760,318.382 99.365,318.052 97.698 L 317.894 96.897 321.147 96.696 C 322.936 96.586,324.441 96.435,324.491 96.361 C 324.542 96.287,324.725 96.173,324.899 96.109 C 325.612 95.845,324.860 92.117,323.958 91.443 C 323.092 90.797,320.861 90.518,319.187 90.847 M329.534 90.909 C 328.459 91.169,327.927 91.642,327.573 92.650 C 327.425 93.072,327.235 93.547,327.152 93.706 C 326.942 94.106,326.955 97.667,327.167 97.667 C 327.258 97.667,327.333 97.857,327.333 98.090 C 327.333 98.553,327.807 99.533,328.317 100.128 C 328.961 100.878,331.069 101.219,333.042 100.893 C 333.633 100.795,333.667 100.756,333.667 100.173 L 333.667 99.557 331.947 99.570 C 329.022 99.593,328.458 98.940,328.472 95.548 C 328.484 92.643,329.248 91.890,332.120 91.948 L 333.667 91.979 333.667 91.430 L 333.667 90.881 332.642 90.774 C 331.248 90.628,330.572 90.657,329.534 90.909 M348.083 90.903 C 347.350 91.027,346.544 91.210,346.292 91.310 L 345.833 91.492 345.833 96.163 L 345.833 100.833 346.500 100.833 L 347.167 100.833 347.167 96.670 L 347.167 92.506 347.625 92.397 C 347.877 92.337,348.185 92.207,348.310 92.108 C 348.938 91.611,351.411 91.895,352.098 92.543 L 352.750 93.158 352.803 96.996 L 352.856 100.833 353.519 100.833 L 354.183 100.833 354.133 96.595 C 354.077 91.841,354.054 91.744,352.795 91.118 C 351.991 90.718,349.777 90.617,348.083 90.903 M359.182 90.836 C 357.090 91.278,356.583 92.286,356.583 96.000 C 356.583 98.872,356.655 99.131,357.734 100.136 C 359.233 101.531,362.920 101.334,364.279 99.786 C 365.305 98.618,365.531 94.197,364.655 92.417 C 363.966 91.015,361.588 90.328,359.182 90.836 M373.761 90.844 C 372.895 90.988,372.230 91.381,371.930 91.925 C 371.831 92.104,371.705 92.287,371.650 92.333 C 371.076 92.811,370.779 96.383,371.160 98.218 C 371.555 100.120,372.905 100.997,375.437 100.999 C 378.639 101.001,379.524 100.014,379.635 96.314 C 379.781 91.455,378.308 90.083,373.761 90.844 M384.430 90.849 C 382.407 91.263,381.917 92.236,381.917 95.833 C 381.917 98.827,382.126 99.471,383.366 100.291 C 384.096 100.775,386.666 100.954,388.148 100.625 L 388.713 100.499 388.601 101.451 C 388.391 103.234,386.526 103.763,382.962 103.051 C 382.322 102.923,382.243 104.066,382.880 104.226 C 384.662 104.673,388.013 104.517,388.854 103.947 C 389.975 103.188,389.974 103.192,389.988 96.989 L 390.000 91.394 389.111 91.114 C 388.008 90.766,385.524 90.626,384.430 90.849 M111.833 95.843 L 111.833 100.852 112.542 100.801 L 113.250 100.750 113.294 95.792 L 113.338 90.833 112.586 90.833 L 111.833 90.833 111.833 95.843 M114.833 91.074 C 114.833 91.217,114.894 91.333,114.968 91.333 C 115.042 91.333,115.222 91.690,115.367 92.125 C 115.891 93.693,116.629 95.604,117.121 96.667 C 117.397 97.263,117.757 98.162,117.920 98.667 C 118.895 101.670,119.747 101.955,120.667 99.583 C 120.880 99.033,121.114 98.504,121.187 98.408 C 121.360 98.179,122.833 94.263,122.833 94.033 C 122.833 93.936,122.934 93.756,123.057 93.633 C 123.231 93.459,124.167 91.145,124.167 90.888 C 124.167 90.858,123.832 90.833,123.423 90.833 C 122.553 90.833,122.595 90.776,121.833 93.042 C 121.533 93.935,121.236 94.667,121.175 94.667 C 121.113 94.667,120.730 95.599,120.324 96.739 L 119.586 98.811 119.277 98.197 C 118.994 97.636,118.188 95.532,117.540 93.667 C 117.397 93.254,117.223 92.879,117.154 92.832 C 117.084 92.785,116.885 92.335,116.712 91.832 L 116.396 90.917 115.615 90.866 C 114.997 90.826,114.833 90.869,114.833 91.074 M250.000 95.833 L 250.000 100.833 250.667 100.833 L 251.333 100.833 251.333 95.833 L 251.333 90.833 250.667 90.833 L 250.000 90.833 250.000 95.833 M391.667 91.153 C 391.667 91.328,391.732 91.497,391.812 91.528 C 391.892 91.558,392.346 92.556,392.821 93.746 C 393.296 94.935,393.739 95.947,393.806 95.996 C 393.872 96.044,394.283 96.983,394.718 98.083 L 395.510 100.083 394.838 102.144 C 394.469 103.278,394.167 104.234,394.167 104.269 C 394.167 104.509,395.524 104.296,395.613 104.042 C 395.670 103.881,395.849 103.447,396.013 103.076 C 396.176 102.706,396.663 101.243,397.094 99.826 C 397.526 98.409,397.932 97.212,397.998 97.167 C 398.064 97.121,398.471 95.958,398.904 94.583 C 399.336 93.208,399.759 91.866,399.845 91.600 C 400.079 90.872,400.053 90.833,399.340 90.833 L 398.681 90.833 398.322 92.042 C 398.124 92.706,397.911 93.287,397.849 93.333 C 397.786 93.379,397.414 94.419,397.021 95.643 C 396.175 98.280,396.254 98.303,394.975 95.052 C 394.523 93.903,394.043 92.853,393.910 92.719 C 393.776 92.586,393.667 92.372,393.667 92.244 C 393.667 91.446,393.110 90.833,392.386 90.833 C 391.788 90.833,391.667 90.887,391.667 91.153 M131.423 92.410 C 132.151 92.965,132.500 93.634,132.500 94.472 C 132.500 95.296,132.513 95.293,129.125 95.438 L 126.499 95.551 126.605 94.734 C 126.755 93.577,127.065 92.906,127.611 92.558 C 127.871 92.393,128.121 92.208,128.167 92.148 C 128.535 91.664,130.670 91.836,131.423 92.410 M156.628 92.440 C 156.938 92.676,157.236 92.992,157.292 93.143 C 157.347 93.293,157.473 93.470,157.571 93.536 C 157.684 93.611,157.750 94.482,157.750 95.881 L 157.750 98.106 157.058 98.833 C 156.045 99.897,153.815 100.024,152.695 99.082 C 151.814 98.340,151.509 94.600,152.218 93.228 C 152.933 91.845,155.296 91.423,156.628 92.440 M184.367 92.641 C 184.974 93.218,185.061 93.399,185.128 94.206 C 185.222 95.332,185.348 95.285,181.791 95.438 L 179.165 95.551 179.242 95.067 C 179.285 94.801,179.364 94.301,179.418 93.956 C 179.507 93.388,179.880 92.889,180.710 92.225 C 181.535 91.567,183.469 91.787,184.367 92.641 M237.822 92.446 C 238.564 92.976,238.802 93.394,238.942 94.413 C 239.064 95.300,239.099 95.289,235.599 95.439 L 232.948 95.553 233.043 94.629 C 233.299 92.152,235.806 91.007,237.822 92.446 M259.471 92.164 C 259.502 92.257,259.672 92.333,259.847 92.333 C 260.152 92.333,260.167 92.494,260.167 95.747 L 260.167 99.160 259.708 99.288 C 258.707 99.569,256.379 99.432,255.882 99.064 C 254.416 97.980,254.470 93.803,255.966 92.472 C 256.660 91.855,259.291 91.624,259.471 92.164 M270.090 92.409 C 270.848 92.923,271.078 93.301,271.228 94.285 C 271.375 95.248,271.232 95.299,268.022 95.436 L 265.333 95.551 265.337 94.817 C 265.349 92.314,267.981 90.981,270.090 92.409 M299.053 92.338 C 299.777 92.764,300.131 93.361,300.272 94.389 C 300.397 95.304,300.447 95.288,296.932 95.439 L 294.281 95.553 294.375 94.652 C 294.624 92.246,296.949 91.096,299.053 92.338 M322.699 92.465 C 323.504 93.019,323.833 93.636,323.833 94.589 C 323.833 95.279,323.765 95.296,320.439 95.439 L 317.795 95.553 317.914 94.651 C 318.258 92.066,320.578 91.006,322.699 92.465 M362.427 92.206 C 363.481 93.090,363.694 93.469,363.869 94.778 C 364.323 98.182,363.205 99.791,360.490 99.638 C 358.473 99.524,357.957 98.773,357.933 95.917 C 357.920 94.322,358.285 92.667,358.649 92.667 C 358.716 92.667,358.924 92.523,359.113 92.348 C 359.687 91.812,361.847 91.720,362.427 92.206 M376.815 92.115 C 376.871 92.194,377.121 92.388,377.372 92.547 C 378.380 93.189,378.821 96.396,378.154 98.238 C 377.717 99.443,375.825 100.010,373.966 99.493 C 372.059 98.964,371.735 93.804,373.524 92.456 C 374.322 91.854,376.470 91.632,376.815 92.115 M387.999 92.151 C 388.045 92.219,388.215 92.323,388.375 92.382 C 388.639 92.479,388.667 92.800,388.667 95.816 L 388.667 99.143 387.712 99.341 C 385.506 99.799,383.667 99.215,383.311 97.943 C 382.651 95.590,383.408 92.333,384.615 92.333 C 384.735 92.333,384.833 92.264,384.833 92.178 C 384.833 91.848,387.773 91.822,387.999 92.151 " stroke="none" fill="#3c3c6c" fill-rule="evenodd"></path><path id="path2" d="" stroke="none" fill="#e83860" fill-rule="evenodd"></path><path id="path3" d="" stroke="none" fill="#e83860" fill-rule="evenodd"></path><path id="path4" d="" stroke="none" fill="#e83860" fill-rule="evenodd"></path></g></svg>