<svg viewBox="0 0 904 124" fill="none" xmlns="http://www.w3.org/2000/svg">
<path d="M64.085 56.4295C92.1372 56.4295 115.079 34.548 116.773 6.92205L58.745 6.92204C30.6927 6.92203 7.75122 28.8035 6.05739 56.4295L64.085 56.4295Z" stroke="white" stroke-width="11.9008"/>
<path d="M55.4646 65.0498C55.4646 93.1021 33.5831 116.044 5.9572 117.737L5.95721 59.7098C5.95721 31.6576 27.8387 8.71605 55.4646 7.02223L55.4646 65.0498Z" stroke="white" stroke-width="11.9008"/>
<mask id="path-5-inside-1" fill="white">
<path fill-rule="evenodd" clipRule="evenodd" d="M61.4151 62.3799L2.67672 62.3799C1.20678 62.3799 0.0142871 61.192 0.00683594 59.7238L0.00683594 59.7099C0.00683626 56.0032 0.350191 52.3766 1.00683 48.8603C5.37854 25.4498 23.6366 6.92688 46.9073 2.16501C50.731 1.38257 54.6901 0.971679 58.7451 0.97168L58.756 0.97168C60.2256 0.977541 61.4151 2.17065 61.4151 3.64158L61.4151 62.3799Z"/>
</mask>
<path d="M2.67672 62.3799L2.67673 50.4791H2.67672V62.3799ZM61.4151 62.3799V74.2808L73.3159 74.2808V62.3799H61.4151ZM0.00683594 59.7238L-11.894 59.7238V59.754L-11.8938 59.7842L0.00683594 59.7238ZM0.00683594 59.7099L-11.894 59.7099L0.00683594 59.7099ZM1.00683 48.8603L-10.6918 46.6757L1.00683 48.8603ZM46.9073 2.16501L44.5215 -9.49422L44.5215 -9.49422L46.9073 2.16501ZM58.7451 0.97168L58.7451 12.8725H58.7451V0.97168ZM58.756 0.97168L58.8035 -10.9291L58.7798 -10.9291H58.756V0.97168ZM61.4151 3.64158L73.3159 3.64158V3.64158H61.4151ZM2.67672 74.2807L61.4151 74.2808V50.4791L2.67673 50.4791L2.67672 74.2807ZM-11.8938 59.7842C-11.8532 67.7981 -5.34563 74.2807 2.67672 74.2807V50.4791C7.7592 50.4791 11.8817 54.586 11.9075 59.6634L-11.8938 59.7842ZM11.9077 59.7238V59.7099L-11.894 59.7099V59.7238L11.9077 59.7238ZM11.9077 59.7099C11.9077 56.7396 12.1827 53.8443 12.7054 51.0449L-10.6918 46.6757C-11.4823 50.9089 -11.894 55.2667 -11.894 59.7099L11.9077 59.7099ZM12.7054 51.0449C16.1871 32.4006 30.7567 17.6173 49.2932 13.8242L44.5215 -9.49422C16.5165 -3.76357 -5.43001 18.4991 -10.6918 46.6757L12.7054 51.0449ZM58.7451 -10.9291C53.8841 -10.9291 49.1259 -10.4364 44.5215 -9.49422L49.2932 13.8242C52.3362 13.2015 55.496 12.8725 58.7451 12.8725L58.7451 -10.9291ZM58.756 -10.9291H58.7451V12.8725H58.756V-10.9291ZM58.7086 12.8724C53.6267 12.8521 49.5143 8.7274 49.5143 3.64158H73.3159C73.3159 -4.38609 66.8245 -10.8971 58.8035 -10.9291L58.7086 12.8724ZM49.5143 3.64158L49.5143 62.3799L73.3159 62.3799L73.3159 3.64158L49.5143 3.64158Z" fill="white" mask="url(#path-5-inside-1)"/>
<path fill-rule="evenodd" clipRule="evenodd" d="M256.008 108.527C248.195 108.527 240.88 104.693 236.433 98.2689L225.727 82.8007H206.064V108.527H184.708V16.2193H224.635C231.947 16.0453 239.211 17.4423 245.936 20.3158C251.61 22.7323 256.452 26.7578 259.865 31.8952C263.204 37.2217 264.895 43.4165 264.726 49.7012C264.982 55.9282 263.296 62.0809 259.9 67.3069C256.504 72.5328 251.567 76.5731 245.773 78.8681L266.473 108.527H256.008ZM238.071 37.7941C233.826 34.7444 228.647 33.2759 223.433 33.643H206.064V65.814H223.488C228.72 66.1976 233.916 64.6854 238.126 61.5537C239.808 60.0916 241.131 58.2622 241.993 56.2069C242.855 54.1517 243.232 51.9257 243.096 49.7012C243.241 47.4677 242.868 45.231 242.005 43.1656C241.143 41.1002 239.815 39.2619 238.126 37.7941H238.071ZM349.27 77.8941H295.579C296.45 82.1107 298.916 85.8282 302.461 88.2719C306.422 90.936 311.127 92.2747 315.897 92.0953C319.247 92.1568 322.58 91.6013 325.729 90.4567C328.705 89.2731 331.416 87.5093 333.703 85.2678L344.627 97.1203C340.899 101.078 336.34 104.16 331.278 106.144C326.215 108.127 320.776 108.963 315.351 108.59C308.012 108.755 300.741 107.144 294.159 103.893C288.265 101.033 283.317 96.5398 279.903 90.9482C276.648 85.2014 274.937 78.7092 274.937 72.1045C274.937 65.4997 276.648 59.0075 279.903 53.2606C283.066 47.7895 287.653 43.2782 293.176 40.2065C299.129 37.062 305.778 35.4655 312.511 35.5639C319.067 35.4625 325.545 37.0021 331.355 40.0427C336.918 42.9607 341.525 47.4161 344.627 52.8783C347.929 58.8176 349.588 65.5294 349.434 72.3229C349.652 72.596 349.543 74.4531 349.27 77.8941ZM301.15 55.0631C297.883 57.8284 295.793 61.7349 295.306 65.987H330.262C329.768 61.7494 327.702 57.8513 324.473 55.0631C321.208 52.3641 317.072 50.9466 312.839 51.0759C308.589 50.9483 304.436 52.3648 301.15 55.0631ZM378.824 77.8941H432.46C432.734 74.4531 432.843 72.596 432.843 72.4867C432.997 65.6932 431.338 58.9814 428.036 53.0421C424.948 47.5876 420.361 43.133 414.818 40.2065C408.895 37.1984 402.345 35.6306 395.701 35.6306C389.058 35.6306 382.508 37.1984 376.584 40.2065C370.934 43.2211 366.228 47.7388 362.984 53.2606C359.674 58.9826 357.975 65.4944 358.068 72.1044C357.961 78.7232 359.681 85.2435 363.039 90.9482C366.452 96.5398 371.401 101.033 377.295 103.893C383.896 107.144 391.185 108.755 398.542 108.59C403.965 108.955 409.402 108.116 414.464 106.133C419.525 104.15 424.085 101.072 427.818 97.1202L416.894 85.2678C414.606 87.5092 411.895 89.2731 408.919 90.4566C405.77 91.6013 402.438 92.1568 399.088 92.0952C394.317 92.2747 389.613 90.936 385.651 88.2719C382.102 85.8428 379.649 82.1154 378.824 77.8941ZM378.551 65.987C379.019 61.7412 381.09 57.834 384.341 55.063C387.624 52.3986 391.747 50.9857 395.975 51.0758C400.192 50.9448 404.311 52.3633 407.554 55.063C410.805 57.834 412.876 61.7412 413.344 65.987H378.551ZM446.609 16.4562V108.616H467.146V37.0479C467.154 34.3463 466.628 31.6699 465.599 29.1719C464.57 26.6739 463.058 24.4035 461.151 22.4907C459.243 20.5778 456.976 19.0602 454.481 18.0247C451.986 16.9892 449.311 16.4562 446.609 16.4562ZM501.663 77.8941H555.355C555.628 74.4531 555.737 72.596 555.737 72.4867C555.891 65.6932 554.232 58.9814 550.93 53.0421C547.842 47.5876 543.255 43.133 537.712 40.2065C531.789 37.1984 525.239 35.6306 518.595 35.6306C511.952 35.6306 505.402 37.1984 499.479 40.2065C493.829 43.2211 489.122 47.7388 485.878 53.2606C482.551 58.9782 480.834 65.4897 480.908 72.1044C480.817 78.7284 482.556 85.249 485.933 90.9482C489.347 96.5398 494.295 101.033 500.189 103.893C506.79 107.144 514.079 108.755 521.436 108.59C526.859 108.955 532.297 108.116 537.358 106.133C542.419 104.15 546.979 101.072 550.712 97.1202L539.788 85.2678C537.5 87.5092 534.789 89.2731 531.813 90.4566C528.665 91.6013 525.332 92.1568 521.982 92.0952C517.211 92.2747 512.507 90.936 508.545 88.2719C505 85.8282 502.535 82.1107 501.663 77.8941ZM501.445 65.987C501.874 61.7294 503.952 57.8087 507.235 55.063C510.542 52.3654 514.711 50.9498 518.978 51.0758C523.194 50.9549 527.31 52.3722 530.557 55.063C533.808 57.834 535.879 61.7412 536.347 65.987H501.445ZM638.592 37.3575L608.606 108.363H587.413L557.591 37.3575H578.838L598.501 85.6414L618.765 37.3575H638.592ZM705.604 54.2515C704.076 50.1579 701.674 46.4461 698.567 43.3741C691.397 37.7663 682.417 34.9868 673.333 35.5635C667.703 35.5371 662.097 36.2907 656.674 37.8029C651.698 39.0888 646.985 41.2329 642.746 44.1388L650.12 58.8861C652.887 56.7177 656.037 55.0874 659.405 54.0796C662.93 52.9112 666.616 52.303 670.329 52.2771C674.71 51.9525 679.059 53.2339 682.564 55.882C683.962 57.2086 685.053 58.8248 685.76 60.6175C686.468 62.4102 686.775 64.3359 686.66 66.2598H670.274C662.207 65.5944 654.136 67.5069 647.225 71.7217C644.813 73.5157 642.875 75.8714 641.581 78.5842C640.286 81.2971 639.674 84.285 639.796 87.2884C639.769 91.16 640.87 94.9559 642.964 98.2123C645.232 101.57 648.417 104.206 652.141 105.804C656.597 107.753 661.425 108.703 666.287 108.59C677.211 108.59 684.257 105.313 688.135 98.7039V107.552H707.416V67.0791C707.75 62.7224 707.132 58.3451 705.604 54.2515ZM686.824 85.3221C685.812 88.3369 683.76 90.8929 681.034 92.5319L680.98 92.3134C678.151 93.9748 674.92 94.8252 671.64 94.7713C668.635 94.9507 665.656 94.1244 663.174 92.4226C662.179 91.7248 661.373 90.7902 660.829 89.7032C660.286 88.6161 660.021 87.4107 660.06 86.196C660.06 80.6248 664.266 77.8938 672.732 77.8938H686.824V85.3221ZM790.214 44.2254C793.098 47.3686 795.308 51.0691 796.708 55.0991C798.107 59.129 798.667 63.4029 798.352 67.6573V108.294H777.76V70.8252C778.125 66.3303 776.823 61.8583 774.101 58.2627C772.705 56.7992 771 55.6668 769.109 54.9485C767.219 54.2302 765.192 53.9442 763.177 54.1116C760.889 54.0017 758.604 54.3727 756.468 55.2006C754.332 56.0285 752.394 57.2949 750.778 58.9181C747.441 62.9071 745.794 68.0425 746.19 73.2285V108.294H725.598V37.2887H745.262V45.6455C748.076 42.5908 751.551 40.2183 755.421 38.7088C759.672 37.0756 764.194 36.2602 768.748 36.3056C772.677 36.0947 776.607 36.6884 780.298 38.0502C783.989 39.4121 787.363 41.5134 790.214 44.2254ZM862.872 104.109C860.63 105.694 858.11 106.843 855.443 107.495C852.384 108.227 849.249 108.594 846.103 108.588C838.994 109.072 831.977 106.76 826.55 102.142C824.116 99.6439 822.24 96.6581 821.045 93.3819C819.849 90.1057 819.361 86.6133 819.613 83.1348V61.3167H808.689V45.477H819.613V16.369C830.985 16.369 840.205 25.5886 840.205 36.961V45.477H857.847V61.3167H840.205V82.8617C840.044 85.3835 840.866 87.8695 842.499 89.7984C843.355 90.6489 844.382 91.3078 845.512 91.7315C846.642 92.1552 847.849 92.3341 849.053 92.2563C852.036 92.3364 854.959 91.4132 857.355 89.6345L862.872 104.109Z" fill="white"/>
<path d="M889.85 108.793C897.544 108.793 903.782 102.555 903.782 94.861C903.782 87.1667 897.544 80.9292 889.85 80.9292C882.155 80.9292 875.918 87.1667 875.918 94.861C875.918 102.555 882.155 108.793 889.85 108.793Z" fill="white"/>
</svg>
