<?xml version="1.0" standalone="no"?>
<!DOCTYPE svg PUBLIC "-//W3C//DTD SVG 20010904//EN"
 "http://www.w3.org/TR/2001/REC-SVG-20010904/DTD/svg10.dtd">
<svg version="1.0" xmlns="http://www.w3.org/2000/svg"
 width="700.000000pt" height="700.000000pt" viewBox="0 0 700.000000 700.000000"
 preserveAspectRatio="xMidYMid meet">
<metadata>
Created by potrace 1.11, written by Peter Selinger 2001-2013
</metadata>
<g transform="translate(0.000000,700.000000) scale(0.100000,-0.100000)"
fill="#000000" stroke="none">
<path d="M3119 6996 c-2 -2 -38 -6 -79 -9 -519 -40 -1102 -245 -1554 -549 -74
-50 -248 -181 -296 -223 -107 -94 -144 -129 -234 -220 -288 -291 -503 -612
-689 -1026 -109 -242 -212 -624 -243 -899 -3 -30 -8 -66 -12 -80 -3 -14 -8
-889 -9 -1945 -4 -2137 -10 -1965 64 -2015 34 -23 45 -25 157 -25 113 0 268 9
343 20 628 88 1163 310 1638 680 154 120 273 231 455 424 8 9 53 63 98 121 46
58 90 112 97 122 75 93 220 335 307 513 136 278 260 661 293 912 2 21 7 47 9
58 2 11 7 52 11 90 4 39 9 81 11 95 3 14 7 122 11 240 3 118 6 216 7 216 0 1
102 4 226 7 124 4 234 9 246 11 11 2 46 7 76 10 47 5 188 29 303 51 415 80
911 304 1283 579 59 43 109 82 112 85 3 3 27 24 55 46 27 22 57 47 66 55 138
131 216 209 322 327 65 73 230 297 293 400 210 337 362 710 439 1077 14 65 28
135 30 155 3 20 7 46 10 59 2 13 7 51 11 85 3 34 8 76 10 92 1 17 6 97 9 178
8 169 -2 213 -58 257 l-31 25 -1892 2 c-1040 2 -1893 1 -1895 -1z"/>
<path d="M5667 2714 c-1 -2 -39 -4 -85 -5 -191 -5 -372 -52 -557 -146 -86 -44
-116 -63 -177 -108 -14 -11 -41 -31 -60 -45 -42 -32 -154 -144 -193 -194 -16
-21 -35 -44 -40 -50 -59 -63 -178 -300 -211 -416 -13 -47 -44 -202 -49 -245
-6 -59 -7 -283 -1 -293 2 -4 7 -32 10 -62 15 -121 94 -363 137 -419 11 -13 19
-28 19 -33 0 -5 19 -38 43 -73 228 -342 550 -550 953 -612 65 -10 281 -10 371
0 154 17 385 100 528 189 78 49 205 151 262 210 132 136 264 358 316 528 52
170 62 236 62 415 -1 153 -6 203 -39 344 -9 41 -27 94 -42 128 -8 17 -14 35
-14 41 0 16 -87 179 -131 245 -200 297 -528 513 -876 576 -61 12 -222 29 -226
25z"/>
</g>
</svg>
